M48
;Layer_Color=9474304
;FILE_FORMAT=2:5
INCH,TZ
;TYPE=PLATED
T1F00S00C0.00787
T2F00S00C0.01181
T3F00S00C0.03543
T4F00S00C0.05118
%
T01
X316912Y235887
Y238189
X324100Y242900
X326400
X328700
X332000Y240000
X320000Y248000
X318312Y254887
Y257189
X317058Y260187
Y262489
X320000Y264000
X313958Y265588
X328000Y264000
X331500Y262100
X333802
X336000Y264000
X344000
X346200Y273000
Y275600
X350665Y280047
X353004Y282378
X355665Y282575
X358004Y284906
X358152Y289000
X355652
X355687Y293000
X358187
Y297000
X355687
X356000Y304000
X364000
X372000
X380000
X388000
X396000
X392000Y312000
X384000
X376000
Y296000
X368000
X366803Y293244
Y291085
Y288925
X372000Y288000
X369528Y284882
X367770Y282622
X367400Y279500
X365286Y280186
X360335Y282567
X371859Y282543
X375396Y278307
X373065Y275968
X372500Y272500
X380000Y272000
Y288000
Y256000
X388000
X396000
X392000Y248000
X384000
X376000
X372700Y247900
Y245700
Y250100
X366143Y253569
X362857
X359097Y258697
X357000Y258700
Y256600
Y263034
X359000
X362921Y265638
X366208
X354010Y273988
X340000Y272000
X332000
X336000Y296000
X344000
X347132Y293319
Y291160
Y289000
X340000Y304000
X332000
X324000
X316000
X320000Y312000
X328000
X336000
X352000
X360000
X328000Y296000
X320000
X358898Y238000
X361200
X365250Y239450
X367550
X369850
X380000Y240000
X388000
X396000
X392000Y232000
X384000
X376000
X308058Y231688
Y233889
X304000Y232000
X296000
X288000
X292000Y240000
X300000
X304000Y248000
X296000
X288000
X292000Y256000
X300000
X312058Y249289
X308000Y304000
X300000
X292000
X296000Y312000
X304000
X312000
X288000
X292000Y320000
X300000
X308000
X312000Y328000
X304000
X296000
X288000
X320000
X328000
X336000
X344000
X352000
X360000
X368000
X376000
X384000
X392000
X396000Y320000
X388000
X364000
X348000
X324000
X316000
T02
X341169Y239669
Y244000
Y248331
X345500
X349831
Y244000
X345500
Y239669
X349831
T03
X315000Y272400
Y282400
Y292400
X325000
Y282400
Y272400
T04
X336815Y321500
X356500
X376185
M30
