G04*
G04 #@! TF.GenerationSoftware,Altium Limited,Altium Designer,20.0.13 (296)*
G04*
G04 Layer_Physical_Order=3*
G04 Layer_Color=36540*
%FSLAX25Y25*%
%MOIN*%
G70*
G01*
G75*
%ADD60C,0.09843*%
%ADD61C,0.01968*%
%ADD62C,0.03150*%
G36*
X402500Y229303D02*
X309859D01*
X309571Y230046D01*
X309519Y230303D01*
X309927Y230914D01*
X310081Y231688D01*
X309927Y232463D01*
X309710Y232788D01*
X309927Y233114D01*
X310081Y233889D01*
X309927Y234663D01*
X309489Y235319D01*
X308832Y235758D01*
X308058Y235912D01*
X307284Y235758D01*
X306627Y235319D01*
X306189Y234663D01*
X306035Y233889D01*
X306189Y233114D01*
X306407Y232788D01*
X306189Y232463D01*
X306035Y231688D01*
X306189Y230914D01*
X306598Y230303D01*
X306545Y230046D01*
X306257Y229303D01*
X283903D01*
Y334097D01*
X402500D01*
Y229303D01*
D02*
G37*
%LPC*%
G36*
X357250Y326768D02*
Y322250D01*
X361768D01*
X361684Y322889D01*
X361148Y324184D01*
X360295Y325295D01*
X359184Y326148D01*
X357889Y326684D01*
X357250Y326768D01*
D02*
G37*
G36*
X355750D02*
X355111Y326684D01*
X353816Y326148D01*
X352705Y325295D01*
X351852Y324184D01*
X351316Y322889D01*
X351232Y322250D01*
X355750D01*
Y326768D01*
D02*
G37*
G36*
X361768Y320750D02*
X357250D01*
Y316232D01*
X357889Y316316D01*
X359184Y316852D01*
X360295Y317705D01*
X361148Y318816D01*
X361684Y320111D01*
X361768Y320750D01*
D02*
G37*
G36*
X355750D02*
X351232D01*
X351316Y320111D01*
X351852Y318816D01*
X352705Y317705D01*
X353816Y316852D01*
X355111Y316316D01*
X355750Y316232D01*
Y320750D01*
D02*
G37*
G36*
X376185Y327450D02*
X375024Y327336D01*
X373908Y326997D01*
X372879Y326447D01*
X371978Y325707D01*
X371238Y324806D01*
X370688Y323777D01*
X370350Y322661D01*
X370235Y321500D01*
X370350Y320339D01*
X370688Y319223D01*
X371238Y318194D01*
X371978Y317293D01*
X372879Y316553D01*
X373908Y316003D01*
X375024Y315664D01*
X376185Y315550D01*
X377346Y315664D01*
X378462Y316003D01*
X379491Y316553D01*
X380392Y317293D01*
X381132Y318194D01*
X381682Y319223D01*
X382021Y320339D01*
X382135Y321500D01*
X382021Y322661D01*
X381682Y323777D01*
X381132Y324806D01*
X380392Y325707D01*
X379491Y326447D01*
X378462Y326997D01*
X377346Y327336D01*
X376185Y327450D01*
D02*
G37*
G36*
X336815D02*
X335654Y327336D01*
X334538Y326997D01*
X333509Y326447D01*
X332608Y325707D01*
X331868Y324806D01*
X331318Y323777D01*
X330979Y322661D01*
X330865Y321500D01*
X330979Y320339D01*
X331318Y319223D01*
X331868Y318194D01*
X332608Y317293D01*
X333509Y316553D01*
X334538Y316003D01*
X335654Y315664D01*
X336815Y315550D01*
X337976Y315664D01*
X339092Y316003D01*
X340121Y316553D01*
X341022Y317293D01*
X341762Y318194D01*
X342312Y319223D01*
X342651Y320339D01*
X342765Y321500D01*
X342651Y322661D01*
X342312Y323777D01*
X341762Y324806D01*
X341022Y325707D01*
X340121Y326447D01*
X339092Y326997D01*
X337976Y327336D01*
X336815Y327450D01*
D02*
G37*
G36*
X318953Y296353D02*
X311047D01*
Y288447D01*
X318953D01*
Y296353D01*
D02*
G37*
G36*
X325000Y296387D02*
X323968Y296251D01*
X323007Y295853D01*
X322181Y295219D01*
X321547Y294393D01*
X321149Y293432D01*
X321013Y292400D01*
X321149Y291368D01*
X321547Y290407D01*
X322181Y289581D01*
X323007Y288947D01*
X323968Y288549D01*
X325000Y288413D01*
X326032Y288549D01*
X326993Y288947D01*
X327819Y289581D01*
X328453Y290407D01*
X328851Y291368D01*
X328987Y292400D01*
X328851Y293432D01*
X328453Y294393D01*
X327819Y295219D01*
X326993Y295853D01*
X326032Y296251D01*
X325000Y296387D01*
D02*
G37*
G36*
X347132Y295342D02*
X346358Y295188D01*
X345702Y294750D01*
X345263Y294093D01*
X345109Y293319D01*
X345263Y292545D01*
X345467Y292239D01*
X345263Y291934D01*
X345109Y291160D01*
X345263Y290385D01*
X345467Y290080D01*
X345263Y289774D01*
X345109Y289000D01*
X345263Y288226D01*
X345702Y287569D01*
X346358Y287131D01*
X347132Y286977D01*
X347907Y287131D01*
X348563Y287569D01*
X349002Y288226D01*
X349155Y289000D01*
X349002Y289774D01*
X348797Y290080D01*
X349002Y290385D01*
X349155Y291160D01*
X349002Y291934D01*
X348797Y292239D01*
X349002Y292545D01*
X349155Y293319D01*
X349002Y294093D01*
X348563Y294750D01*
X347907Y295188D01*
X347132Y295342D01*
D02*
G37*
G36*
X366803Y295268D02*
X366029Y295113D01*
X365372Y294675D01*
X364934Y294019D01*
X364780Y293244D01*
X364934Y292470D01*
X365138Y292165D01*
X364934Y291859D01*
X364780Y291085D01*
X364934Y290311D01*
X365138Y290005D01*
X364934Y289699D01*
X364780Y288925D01*
X364934Y288151D01*
X365372Y287495D01*
X366029Y287056D01*
X366803Y286902D01*
X367577Y287056D01*
X368234Y287495D01*
X368672Y288151D01*
X368826Y288925D01*
X368672Y289699D01*
X368468Y290005D01*
X368672Y290311D01*
X368826Y291085D01*
X368672Y291859D01*
X368468Y292165D01*
X368672Y292470D01*
X368826Y293244D01*
X368672Y294019D01*
X368234Y294675D01*
X367577Y295113D01*
X366803Y295268D01*
D02*
G37*
G36*
X325000Y286387D02*
X323968Y286251D01*
X323007Y285853D01*
X322181Y285219D01*
X321547Y284393D01*
X321149Y283432D01*
X321013Y282400D01*
X321149Y281368D01*
X321547Y280407D01*
X322181Y279581D01*
X323007Y278947D01*
X323968Y278549D01*
X325000Y278413D01*
X326032Y278549D01*
X326993Y278947D01*
X327819Y279581D01*
X328453Y280407D01*
X328851Y281368D01*
X328987Y282400D01*
X328851Y283432D01*
X328453Y284393D01*
X327819Y285219D01*
X326993Y285853D01*
X326032Y286251D01*
X325000Y286387D01*
D02*
G37*
G36*
X315000D02*
X313968Y286251D01*
X313007Y285853D01*
X312181Y285219D01*
X311547Y284393D01*
X311149Y283432D01*
X311013Y282400D01*
X311149Y281368D01*
X311547Y280407D01*
X312181Y279581D01*
X313007Y278947D01*
X313968Y278549D01*
X315000Y278413D01*
X316032Y278549D01*
X316993Y278947D01*
X317819Y279581D01*
X318453Y280407D01*
X318851Y281368D01*
X318987Y282400D01*
X318851Y283432D01*
X318453Y284393D01*
X317819Y285219D01*
X316993Y285853D01*
X316032Y286251D01*
X315000Y286387D01*
D02*
G37*
G36*
X365286Y282209D02*
X364512Y282055D01*
X363855Y281616D01*
X363417Y280960D01*
X363263Y280186D01*
X363417Y279412D01*
X363855Y278755D01*
X364512Y278317D01*
X365286Y278163D01*
X365834Y278272D01*
X365969Y278069D01*
X366626Y277631D01*
X367400Y277477D01*
X368174Y277631D01*
X368831Y278069D01*
X369269Y278726D01*
X369423Y279500D01*
X369269Y280274D01*
X368831Y280931D01*
X368174Y281369D01*
X367400Y281523D01*
X366851Y281414D01*
X366716Y281616D01*
X366060Y282055D01*
X365286Y282209D01*
D02*
G37*
G36*
X354010Y276011D02*
X353236Y275857D01*
X352579Y275419D01*
X352141Y274763D01*
X351987Y273988D01*
X352141Y273214D01*
X352579Y272558D01*
X353236Y272119D01*
X354010Y271965D01*
X354784Y272119D01*
X355440Y272558D01*
X355879Y273214D01*
X356033Y273988D01*
X355879Y274763D01*
X355440Y275419D01*
X354784Y275857D01*
X354010Y276011D01*
D02*
G37*
G36*
X372500Y274523D02*
X371726Y274369D01*
X371069Y273931D01*
X370631Y273274D01*
X370477Y272500D01*
X370631Y271726D01*
X371069Y271069D01*
X371726Y270631D01*
X372500Y270477D01*
X373274Y270631D01*
X373931Y271069D01*
X374369Y271726D01*
X374523Y272500D01*
X374369Y273274D01*
X373931Y273931D01*
X373274Y274369D01*
X372500Y274523D01*
D02*
G37*
G36*
X325000Y276387D02*
X323968Y276251D01*
X323007Y275853D01*
X322181Y275219D01*
X321547Y274393D01*
X321149Y273432D01*
X321013Y272400D01*
X321149Y271368D01*
X321547Y270407D01*
X322181Y269581D01*
X323007Y268947D01*
X323968Y268549D01*
X325000Y268413D01*
X326032Y268549D01*
X326993Y268947D01*
X327819Y269581D01*
X328453Y270407D01*
X328851Y271368D01*
X328987Y272400D01*
X328851Y273432D01*
X328453Y274393D01*
X327819Y275219D01*
X326993Y275853D01*
X326032Y276251D01*
X325000Y276387D01*
D02*
G37*
G36*
X315000D02*
X313968Y276251D01*
X313007Y275853D01*
X312181Y275219D01*
X311547Y274393D01*
X311149Y273432D01*
X311013Y272400D01*
X311149Y271368D01*
X311547Y270407D01*
X312181Y269581D01*
X313007Y268947D01*
X313968Y268549D01*
X315000Y268413D01*
X316032Y268549D01*
X316993Y268947D01*
X317819Y269581D01*
X318453Y270407D01*
X318851Y271368D01*
X318987Y272400D01*
X318851Y273432D01*
X318453Y274393D01*
X317819Y275219D01*
X316993Y275853D01*
X316032Y276251D01*
X315000Y276387D01*
D02*
G37*
G36*
X359000Y265057D02*
X358226Y264903D01*
X358000Y264752D01*
X357774Y264903D01*
X357000Y265057D01*
X356226Y264903D01*
X355569Y264464D01*
X355131Y263808D01*
X354977Y263034D01*
X355131Y262259D01*
X355569Y261603D01*
X356226Y261164D01*
X357000Y261010D01*
X357774Y261164D01*
X358000Y261315D01*
X358226Y261164D01*
X359000Y261010D01*
X359774Y261164D01*
X360431Y261603D01*
X360869Y262259D01*
X361023Y263034D01*
X360869Y263808D01*
X360431Y264464D01*
X359774Y264903D01*
X359000Y265057D01*
D02*
G37*
G36*
X372700Y252123D02*
X371926Y251969D01*
X371269Y251531D01*
X370831Y250874D01*
X370677Y250100D01*
X370831Y249326D01*
X371049Y249000D01*
X370831Y248674D01*
X370677Y247900D01*
X370831Y247126D01*
X371049Y246800D01*
X370831Y246474D01*
X370677Y245700D01*
X370831Y244926D01*
X371269Y244269D01*
X371926Y243831D01*
X372700Y243677D01*
X373474Y243831D01*
X374131Y244269D01*
X374569Y244926D01*
X374723Y245700D01*
X374569Y246474D01*
X374351Y246800D01*
X374569Y247126D01*
X374723Y247900D01*
X374569Y248674D01*
X374351Y249000D01*
X374569Y249326D01*
X374723Y250100D01*
X374569Y250874D01*
X374131Y251531D01*
X373474Y251969D01*
X372700Y252123D01*
D02*
G37*
%LPD*%
D60*
X356500Y321500D02*
D03*
D61*
X320000Y264000D02*
D03*
X392000Y328000D02*
D03*
X396000Y320000D02*
D03*
X392000Y312000D02*
D03*
X396000Y304000D02*
D03*
Y256000D02*
D03*
X392000Y248000D02*
D03*
X396000Y240000D02*
D03*
X392000Y232000D02*
D03*
X384000Y328000D02*
D03*
X388000Y320000D02*
D03*
X384000Y312000D02*
D03*
X388000Y304000D02*
D03*
Y256000D02*
D03*
X384000Y248000D02*
D03*
X388000Y240000D02*
D03*
X384000Y232000D02*
D03*
X376000Y328000D02*
D03*
Y312000D02*
D03*
X380000Y304000D02*
D03*
X376000Y296000D02*
D03*
X380000Y288000D02*
D03*
Y272000D02*
D03*
Y256000D02*
D03*
X376000Y248000D02*
D03*
X380000Y240000D02*
D03*
X376000Y232000D02*
D03*
X368000Y328000D02*
D03*
X372000Y304000D02*
D03*
X368000Y296000D02*
D03*
X372000Y288000D02*
D03*
X360000Y328000D02*
D03*
X364000Y320000D02*
D03*
X360000Y312000D02*
D03*
X364000Y304000D02*
D03*
X352000Y328000D02*
D03*
Y312000D02*
D03*
X356000Y304000D02*
D03*
X344000Y328000D02*
D03*
X348000Y320000D02*
D03*
X344000Y296000D02*
D03*
Y264000D02*
D03*
X336000Y328000D02*
D03*
Y312000D02*
D03*
X340000Y304000D02*
D03*
X336000Y296000D02*
D03*
X340000Y272000D02*
D03*
X336000Y264000D02*
D03*
X328000Y328000D02*
D03*
Y312000D02*
D03*
X332000Y304000D02*
D03*
X328000Y296000D02*
D03*
X332000Y272000D02*
D03*
X328000Y264000D02*
D03*
X332000Y240000D02*
D03*
X320000Y328000D02*
D03*
X324000Y320000D02*
D03*
X320000Y312000D02*
D03*
X324000Y304000D02*
D03*
X320000Y296000D02*
D03*
Y248000D02*
D03*
X312000Y328000D02*
D03*
X316000Y320000D02*
D03*
X312000Y312000D02*
D03*
X316000Y304000D02*
D03*
X304000Y328000D02*
D03*
X308000Y320000D02*
D03*
X304000Y312000D02*
D03*
X308000Y304000D02*
D03*
X304000Y248000D02*
D03*
Y232000D02*
D03*
X296000Y328000D02*
D03*
X300000Y320000D02*
D03*
X296000Y312000D02*
D03*
X300000Y304000D02*
D03*
Y256000D02*
D03*
X296000Y248000D02*
D03*
X300000Y240000D02*
D03*
X296000Y232000D02*
D03*
X288000Y328000D02*
D03*
X292000Y320000D02*
D03*
X288000Y312000D02*
D03*
X292000Y304000D02*
D03*
Y256000D02*
D03*
X288000Y248000D02*
D03*
X292000Y240000D02*
D03*
X288000Y232000D02*
D03*
X346200Y273000D02*
D03*
Y275600D02*
D03*
X367770Y282622D02*
D03*
X369528Y284882D02*
D03*
X375396Y278307D02*
D03*
X373065Y275968D02*
D03*
X353004Y282378D02*
D03*
X350665Y280047D02*
D03*
X360335Y282567D02*
D03*
X358004Y284906D02*
D03*
X355665Y282575D02*
D03*
X371859Y282543D02*
D03*
X355687Y297000D02*
D03*
X358187D02*
D03*
X355687Y293000D02*
D03*
X358187D02*
D03*
X358152Y289000D02*
D03*
X355652D02*
D03*
X313958Y265588D02*
D03*
X318312Y254887D02*
D03*
Y257189D02*
D03*
X317058Y260187D02*
D03*
Y262489D02*
D03*
X312058Y249289D02*
D03*
X331500Y262100D02*
D03*
X333802D02*
D03*
X316912Y238189D02*
D03*
Y235887D02*
D03*
X358898Y238000D02*
D03*
X361200D02*
D03*
X365250Y239450D02*
D03*
X367550D02*
D03*
X369850D02*
D03*
X328700Y242900D02*
D03*
X326400D02*
D03*
X324100D02*
D03*
X359097Y258697D02*
D03*
X357000Y258700D02*
D03*
Y256600D02*
D03*
X362921Y265638D02*
D03*
X366208D02*
D03*
X362857Y253569D02*
D03*
X366143D02*
D03*
D62*
X341169Y248331D02*
D03*
X345500D02*
D03*
X349831D02*
D03*
X341169Y244000D02*
D03*
X345500D02*
D03*
X349831D02*
D03*
X341169Y239669D02*
D03*
X345500D02*
D03*
X349831D02*
D03*
M02*
