G04*
G04 #@! TF.GenerationSoftware,Altium Limited,Altium Designer,20.0.13 (296)*
G04*
G04 Layer_Color=65535*
%FSLAX25Y25*%
%MOIN*%
G70*
G01*
G75*
%ADD10C,0.01000*%
%ADD11C,0.00984*%
%ADD12C,0.00787*%
%ADD13C,0.00394*%
%ADD14C,0.00600*%
%ADD15C,0.01200*%
%ADD16C,0.01500*%
%ADD17C,0.00800*%
D10*
X306822Y311100D02*
G03*
X306822Y311100I-922J0D01*
G01*
Y317700D02*
G03*
X306822Y317700I-922J0D01*
G01*
Y324300D02*
G03*
X306822Y324300I-922J0D01*
G01*
X313422Y311100D02*
G03*
X313422Y311100I-922J0D01*
G01*
Y317700D02*
G03*
X313422Y317700I-922J0D01*
G01*
Y324300D02*
G03*
X313422Y324300I-922J0D01*
G01*
X357658Y331500D02*
G03*
X357658Y331500I-1000J0D01*
G01*
X337657D02*
G03*
X337657Y331500I-1000J0D01*
G01*
X377343D02*
G03*
X377343Y331500I-1000J0D01*
G01*
X370300Y265200D02*
G03*
X370300Y265200I-500J0D01*
G01*
X306058Y244888D02*
G03*
X306058Y244888I-1000J0D01*
G01*
X306822Y311100D02*
X311556D01*
X306822Y317700D02*
X311556D01*
X306822Y324300D02*
X311556D01*
X386500Y303500D02*
Y333500D01*
X327000Y303500D02*
Y333500D01*
X386500D01*
X327000Y303500D02*
X386500D01*
D11*
X332392Y249200D02*
G03*
X332392Y249200I-492J0D01*
G01*
D12*
X344951Y272732D02*
Y279132D01*
X330751Y292332D02*
X344951D01*
X330751Y272732D02*
X344951D01*
X330751D02*
Y279132D01*
Y285932D02*
Y292332D01*
X344951Y285932D02*
Y292332D01*
X334451Y284732D02*
X341251D01*
X310000Y267400D02*
X330000D01*
X310000Y297400D02*
X330000D01*
Y267400D02*
Y297400D01*
X310000Y267400D02*
Y297400D01*
X284592Y258347D02*
X304769D01*
Y267205D01*
X284592Y301654D02*
X304769D01*
Y292795D02*
Y301654D01*
X381673D02*
X401850D01*
X381673Y292795D02*
Y301654D01*
Y258347D02*
X401850D01*
X381673D02*
Y267205D01*
X361181Y252909D02*
Y254090D01*
X358819Y252909D02*
Y254090D01*
X358819Y243409D02*
Y244590D01*
X361181Y243409D02*
Y244590D01*
X333881Y255509D02*
Y256691D01*
X331519Y255509D02*
Y256691D01*
X335700Y254728D02*
X338118D01*
X352882D02*
X356228D01*
Y251382D02*
Y254728D01*
Y233272D02*
Y236618D01*
X352882Y233272D02*
X356228D01*
X334772D02*
Y236618D01*
Y233272D02*
X338118D01*
X310468Y260107D02*
X311649D01*
X310468Y262470D02*
X311649D01*
X310322Y235807D02*
X311503D01*
X310322Y238170D02*
X311503D01*
D13*
X348425Y300000D02*
Y302000D01*
X366500Y300000D02*
Y302000D01*
X362435Y295925D02*
Y297925D01*
Y291925D02*
Y293925D01*
Y287900D02*
Y289900D01*
X351500Y296000D02*
Y298000D01*
Y292000D02*
Y294000D01*
X351465Y288000D02*
Y290000D01*
X368500Y281035D02*
X370500D01*
X357000D02*
X359000D01*
X351800Y278272D02*
X354200D01*
X351800Y269272D02*
X354200D01*
X348100Y272900D02*
X350500D01*
X363035Y262000D02*
Y264000D01*
X351800Y262772D02*
X354200D01*
X374200Y274200D02*
X376600D01*
X372300Y267500D02*
X374700D01*
X367800Y261000D02*
X370200D01*
X363300Y257500D02*
X365700D01*
X322900Y261200D02*
X324900D01*
X310058Y264489D02*
Y266489D01*
X307300Y270275D02*
X309300D01*
X310058Y239988D02*
Y241988D01*
D14*
X359563Y265500D02*
X367437D01*
X359563Y277600D02*
X367437D01*
X371000Y238800D02*
Y243800D01*
X364000Y238800D02*
Y243800D01*
X329900Y242200D02*
Y247200D01*
X322900Y242200D02*
Y247200D01*
X306008Y252488D02*
X318008D01*
Y249488D02*
Y252488D01*
X307008Y249488D02*
X318008D01*
X306008Y250488D02*
X307008Y249488D01*
X306008Y250488D02*
Y252488D01*
D15*
X290400Y313199D02*
X293066D01*
X291733D01*
Y309200D01*
X294399D02*
Y313199D01*
X296398D01*
X297064Y312532D01*
Y311199D01*
X296398Y310533D01*
X294399D01*
X301063Y312532D02*
X300397Y313199D01*
X299064D01*
X298397Y312532D01*
Y311866D01*
X299064Y311199D01*
X300397D01*
X301063Y310533D01*
Y309866D01*
X300397Y309200D01*
X299064D01*
X298397Y309866D01*
X290400Y315800D02*
Y319799D01*
X293066Y315800D01*
Y319799D01*
X297064Y319132D02*
X296398Y319799D01*
X295065D01*
X294399Y319132D01*
Y316466D01*
X295065Y315800D01*
X296398D01*
X297064Y316466D01*
X298397Y315800D02*
Y319799D01*
X300397D01*
X301063Y319132D01*
Y317799D01*
X300397Y317133D01*
X298397D01*
X293066Y325732D02*
X292399Y326399D01*
X291066D01*
X290400Y325732D01*
Y325066D01*
X291066Y324399D01*
X292399D01*
X293066Y323733D01*
Y323066D01*
X292399Y322400D01*
X291066D01*
X290400Y323066D01*
X294399Y322400D02*
Y326399D01*
X295732Y325066D01*
X297064Y326399D01*
Y322400D01*
X298397D02*
Y325066D01*
X299730Y326399D01*
X301063Y325066D01*
Y322400D01*
Y324399D01*
X298397D01*
D16*
X391301Y307500D02*
Y310832D01*
X388802Y315831D02*
Y312498D01*
X391301D01*
X390468Y314164D01*
Y314998D01*
X391301Y315831D01*
X392967D01*
X393800Y314998D01*
Y313331D01*
X392967Y312498D01*
X393800Y317497D02*
X392967D01*
Y318330D01*
X393800D01*
Y317497D01*
X389635Y321662D02*
X388802Y322495D01*
Y324161D01*
X389635Y324994D01*
X392967D01*
X393800Y324161D01*
Y322495D01*
X392967Y321662D01*
X389635D01*
X388802Y326660D02*
X392134D01*
X393800Y328327D01*
X392134Y329993D01*
X388802D01*
X322001Y307500D02*
Y310832D01*
X320335Y309166D02*
X323667D01*
X319502Y315831D02*
Y312498D01*
X322001D01*
X321168Y314164D01*
Y314998D01*
X322001Y315831D01*
X323667D01*
X324500Y314998D01*
Y313331D01*
X323667Y312498D01*
X324500Y317497D02*
X323667D01*
Y318330D01*
X324500D01*
Y317497D01*
X320335Y321662D02*
X319502Y322495D01*
Y324161D01*
X320335Y324994D01*
X323667D01*
X324500Y324161D01*
Y322495D01*
X323667Y321662D01*
X320335D01*
X319502Y326660D02*
X322834D01*
X324500Y328327D01*
X322834Y329993D01*
X319502D01*
D17*
X341301Y259400D02*
Y256900D01*
X341801Y256400D01*
X342800D01*
X343300Y256900D01*
Y259400D01*
X344300Y258900D02*
X344800Y259400D01*
X345799D01*
X346299Y258900D01*
Y258400D01*
X345799Y257900D01*
X345300D01*
X345799D01*
X346299Y257400D01*
Y256900D01*
X345799Y256400D01*
X344800D01*
X344300Y256900D01*
X299301Y242101D02*
X301800D01*
X302299Y242601D01*
Y243600D01*
X301800Y244100D01*
X299301D01*
X302299Y247099D02*
Y245100D01*
X300300Y247099D01*
X299800D01*
X299301Y246599D01*
Y245600D01*
X299800Y245100D01*
X361753Y281707D02*
Y279207D01*
X362252Y278708D01*
X363252D01*
X363752Y279207D01*
Y281707D01*
X364752Y278708D02*
X365751D01*
X365251D01*
Y281707D01*
X364752Y281207D01*
X350650Y276517D02*
X348150D01*
Y277767D01*
X348567Y278184D01*
X349400D01*
X349816Y277767D01*
Y276517D01*
Y277350D02*
X350650Y278184D01*
X348567Y279016D02*
X348150Y279433D01*
Y280266D01*
X348567Y280683D01*
X348983D01*
X349400Y280266D01*
X349816Y280683D01*
X350233D01*
X350650Y280266D01*
Y279433D01*
X350233Y279016D01*
X349816D01*
X349400Y279433D01*
X348983Y279016D01*
X348567D01*
X349400Y279433D02*
Y280266D01*
X346950Y266917D02*
X344450D01*
Y268167D01*
X344867Y268583D01*
X345700D01*
X346116Y268167D01*
Y266917D01*
Y267750D02*
X346950Y268583D01*
X344450Y269416D02*
Y271083D01*
X344867D01*
X346533Y269416D01*
X346950D01*
X350900Y260401D02*
X347901D01*
Y261900D01*
X348400Y262400D01*
X349400D01*
X349900Y261900D01*
Y260401D01*
Y261401D02*
X350900Y262400D01*
X347901Y265399D02*
X348400Y264400D01*
X349400Y263400D01*
X350400D01*
X350900Y263900D01*
Y264899D01*
X350400Y265399D01*
X349900D01*
X349400Y264899D01*
Y263400D01*
X348601Y282300D02*
Y285299D01*
X350100D01*
X350600Y284800D01*
Y283800D01*
X350100Y283300D01*
X348601D01*
X349601D02*
X350600Y282300D01*
X353599Y285299D02*
X351600D01*
Y283800D01*
X352600Y284300D01*
X353099D01*
X353599Y283800D01*
Y282800D01*
X353099Y282300D01*
X352100D01*
X351600Y282800D01*
X370300Y252101D02*
X367301D01*
Y253600D01*
X367800Y254100D01*
X368800D01*
X369300Y253600D01*
Y252101D01*
Y253100D02*
X370300Y254100D01*
Y256599D02*
X367301D01*
X368800Y255100D01*
Y257099D01*
X381200Y271801D02*
X378201D01*
Y273300D01*
X378700Y273800D01*
X379700D01*
X380200Y273300D01*
Y271801D01*
Y272800D02*
X381200Y273800D01*
X378700Y274800D02*
X378201Y275300D01*
Y276299D01*
X378700Y276799D01*
X379200D01*
X379700Y276299D01*
Y275799D01*
Y276299D01*
X380200Y276799D01*
X380700D01*
X381200Y276299D01*
Y275300D01*
X380700Y274800D01*
X379399Y265001D02*
X376400D01*
Y266500D01*
X376900Y267000D01*
X377900D01*
X378400Y266500D01*
Y265001D01*
Y266001D02*
X379399Y267000D01*
Y269999D02*
Y268000D01*
X377400Y269999D01*
X376900D01*
X376400Y269499D01*
Y268500D01*
X376900Y268000D01*
X374799Y259201D02*
X371800D01*
Y260700D01*
X372300Y261200D01*
X373300D01*
X373800Y260700D01*
Y259201D01*
Y260200D02*
X374799Y261200D01*
Y262200D02*
Y263199D01*
Y262700D01*
X371800D01*
X372300Y262200D01*
X310601Y298601D02*
Y301600D01*
X312100D01*
X312600Y301100D01*
Y300100D01*
X312100Y299600D01*
X310601D01*
X313600Y298601D02*
X314599D01*
X314100D01*
Y301600D01*
X313600Y301100D01*
X287500Y256899D02*
X286501D01*
X287000D01*
Y254400D01*
X286501Y253901D01*
X286001D01*
X285501Y254400D01*
X288500Y256400D02*
X289000Y256899D01*
X289999D01*
X290499Y256400D01*
Y255900D01*
X289999Y255400D01*
X289499D01*
X289999D01*
X290499Y254900D01*
Y254400D01*
X289999Y253901D01*
X289000D01*
X288500Y254400D01*
X395500Y305999D02*
X394500D01*
X395000D01*
Y303500D01*
X394500Y303000D01*
X394001D01*
X393501Y303500D01*
X398499Y303000D02*
X396500D01*
X398499Y305000D01*
Y305500D01*
X397999Y305999D01*
X397000D01*
X396500Y305500D01*
X330700Y301500D02*
X329700D01*
X330200D01*
Y299000D01*
X329700Y298500D01*
X329201D01*
X328701Y299000D01*
X331700Y298500D02*
X332699D01*
X332200D01*
Y301500D01*
X331700Y301000D01*
X326000Y259501D02*
Y257501D01*
X327500D01*
Y258501D01*
Y257501D01*
X328999D01*
X326000Y260500D02*
X328999D01*
Y262000D01*
X328500Y262500D01*
X328000D01*
X327500Y262000D01*
Y260500D01*
Y262000D01*
X327000Y262500D01*
X326500D01*
X326000Y262000D01*
Y260500D01*
X328999Y264999D02*
X326000D01*
X327500Y263499D01*
Y265499D01*
X305601Y276101D02*
Y274101D01*
X307100D01*
Y275101D01*
Y274101D01*
X308599D01*
X305601Y277100D02*
X308599D01*
Y278600D01*
X308100Y279100D01*
X307600D01*
X307100Y278600D01*
Y277100D01*
Y278600D01*
X306600Y279100D01*
X306100D01*
X305601Y278600D01*
Y277100D01*
X306100Y280099D02*
X305601Y280599D01*
Y281599D01*
X306100Y282099D01*
X306600D01*
X307100Y281599D01*
Y281099D01*
Y281599D01*
X307600Y282099D01*
X308100D01*
X308599Y281599D01*
Y280599D01*
X308100Y280099D01*
X372301Y302200D02*
X370301D01*
Y300700D01*
X371301D01*
X370301D01*
Y299201D01*
X373300Y302200D02*
Y299201D01*
X374800D01*
X375300Y299700D01*
Y300200D01*
X374800Y300700D01*
X373300D01*
X374800D01*
X375300Y301200D01*
Y301700D01*
X374800Y302200D01*
X373300D01*
X378299Y299201D02*
X376299D01*
X378299Y301200D01*
Y301700D01*
X377799Y302200D01*
X376799D01*
X376299Y301700D01*
X339900Y302299D02*
X337901D01*
Y300800D01*
X338901D01*
X337901D01*
Y299301D01*
X340900Y302299D02*
Y299301D01*
X342400D01*
X342899Y299800D01*
Y300300D01*
X342400Y300800D01*
X340900D01*
X342400D01*
X342899Y301300D01*
Y301800D01*
X342400Y302299D01*
X340900D01*
X343899Y299301D02*
X344899D01*
X344399D01*
Y302299D01*
X343899Y301800D01*
X359100Y233051D02*
X358600Y232551D01*
Y231551D01*
X359100Y231051D01*
X361100D01*
X361599Y231551D01*
Y232551D01*
X361100Y233051D01*
X361599Y234050D02*
Y235050D01*
Y234550D01*
X358600D01*
X359100Y234050D01*
X361100Y236549D02*
X361599Y237049D01*
Y238049D01*
X361100Y238549D01*
X359100D01*
X358600Y238049D01*
Y237049D01*
X359100Y236549D01*
X359600D01*
X360100Y237049D01*
Y238549D01*
X318500Y236251D02*
X318001Y235751D01*
Y234751D01*
X318500Y234251D01*
X320500D01*
X321000Y234751D01*
Y235751D01*
X320500Y236251D01*
X321000Y237250D02*
Y238250D01*
Y237750D01*
X318001D01*
X318500Y237250D01*
Y239749D02*
X318001Y240249D01*
Y241249D01*
X318500Y241749D01*
X319000D01*
X319500Y241249D01*
X320000Y241749D01*
X320500D01*
X321000Y241249D01*
Y240249D01*
X320500Y239749D01*
X320000D01*
X319500Y240249D01*
X319000Y239749D01*
X318500D01*
X319500Y240249D02*
Y241249D01*
X336100Y259501D02*
X335600Y259001D01*
Y258001D01*
X336100Y257501D01*
X338100D01*
X338599Y258001D01*
Y259001D01*
X338100Y259501D01*
X338599Y260500D02*
Y261500D01*
Y261000D01*
X335600D01*
X336100Y260500D01*
X335600Y263000D02*
Y264999D01*
X336100D01*
X338100Y263000D01*
X338599D01*
X351651Y258700D02*
X351151Y259200D01*
X350151D01*
X349651Y258700D01*
Y256700D01*
X350151Y256201D01*
X351151D01*
X351651Y256700D01*
X352650Y256201D02*
X353650D01*
X353150D01*
Y259200D01*
X352650Y258700D01*
X357149Y259200D02*
X356149Y258700D01*
X355149Y257700D01*
Y256700D01*
X355649Y256201D01*
X356649D01*
X357149Y256700D01*
Y257200D01*
X356649Y257700D01*
X355149D01*
X372800Y233051D02*
X372301Y232551D01*
Y231551D01*
X372800Y231051D01*
X374800D01*
X375300Y231551D01*
Y232551D01*
X374800Y233051D01*
X375300Y234050D02*
Y235050D01*
Y234550D01*
X372301D01*
X372800Y234050D01*
X372301Y238549D02*
Y236549D01*
X373800D01*
X373300Y237549D01*
Y238049D01*
X373800Y238549D01*
X374800D01*
X375300Y238049D01*
Y237049D01*
X374800Y236549D01*
X296451Y252200D02*
X295951Y252699D01*
X294951D01*
X294451Y252200D01*
Y250200D01*
X294951Y249700D01*
X295951D01*
X296451Y250200D01*
X297450Y249700D02*
X298450D01*
X297950D01*
Y252699D01*
X297450Y252200D01*
X301449Y249700D02*
Y252699D01*
X299949Y251200D01*
X301949D01*
X296351Y256600D02*
X295851Y257100D01*
X294851D01*
X294351Y256600D01*
Y254600D01*
X294851Y254100D01*
X295851D01*
X296351Y254600D01*
X297350Y254100D02*
X298350D01*
X297850D01*
Y257100D01*
X297350Y256600D01*
X299849D02*
X300349Y257100D01*
X301349D01*
X301849Y256600D01*
Y256100D01*
X301349Y255600D01*
X300849D01*
X301349D01*
X301849Y255100D01*
Y254600D01*
X301349Y254100D01*
X300349D01*
X299849Y254600D01*
X300151Y240300D02*
X299651Y240799D01*
X298651D01*
X298151Y240300D01*
Y238300D01*
X298651Y237801D01*
X299651D01*
X300151Y238300D01*
X301150Y237801D02*
X302150D01*
X301650D01*
Y240799D01*
X301150Y240300D01*
X305649Y237801D02*
X303649D01*
X305649Y239800D01*
Y240300D01*
X305149Y240799D01*
X304149D01*
X303649Y240300D01*
X300250Y235600D02*
X299751Y236100D01*
X298751D01*
X298251Y235600D01*
Y233600D01*
X298751Y233101D01*
X299751D01*
X300250Y233600D01*
X301250Y233101D02*
X302250D01*
X301750D01*
Y236100D01*
X301250Y235600D01*
X303749Y233101D02*
X304749D01*
X304249D01*
Y236100D01*
X303749Y235600D01*
X361651Y286500D02*
X361151Y287000D01*
X360151D01*
X359651Y286500D01*
Y284500D01*
X360151Y284000D01*
X361151D01*
X361651Y284500D01*
X362650Y284000D02*
X363650D01*
X363150D01*
Y287000D01*
X362650Y286500D01*
X365149D02*
X365649Y287000D01*
X366649D01*
X367149Y286500D01*
Y284500D01*
X366649Y284000D01*
X365649D01*
X365149Y284500D01*
Y286500D01*
X336900Y270700D02*
X336400Y271199D01*
X335401D01*
X334901Y270700D01*
Y268700D01*
X335401Y268200D01*
X336400D01*
X336900Y268700D01*
X337900D02*
X338400Y268200D01*
X339399D01*
X339899Y268700D01*
Y270700D01*
X339399Y271199D01*
X338400D01*
X337900Y270700D01*
Y270200D01*
X338400Y269700D01*
X339899D01*
X372600Y280400D02*
X372100Y279900D01*
Y278901D01*
X372600Y278401D01*
X374600D01*
X375099Y278901D01*
Y279900D01*
X374600Y280400D01*
X372600Y281400D02*
X372100Y281900D01*
Y282899D01*
X372600Y283399D01*
X373100D01*
X373600Y282899D01*
X374100Y283399D01*
X374600D01*
X375099Y282899D01*
Y281900D01*
X374600Y281400D01*
X374100D01*
X373600Y281900D01*
X373100Y281400D01*
X372600D01*
X373600Y281900D02*
Y282899D01*
X370200Y297400D02*
X369700Y297900D01*
X368701D01*
X368201Y297400D01*
Y295400D01*
X368701Y294900D01*
X369700D01*
X370200Y295400D01*
X371200Y297900D02*
X373199D01*
Y297400D01*
X371200Y295400D01*
Y294900D01*
X370200Y293300D02*
X369700Y293799D01*
X368701D01*
X368201Y293300D01*
Y291300D01*
X368701Y290800D01*
X369700D01*
X370200Y291300D01*
X373199Y293799D02*
X372200Y293300D01*
X371200Y292300D01*
Y291300D01*
X371700Y290800D01*
X372699D01*
X373199Y291300D01*
Y291800D01*
X372699Y292300D01*
X371200D01*
X370200Y289200D02*
X369700Y289700D01*
X368701D01*
X368201Y289200D01*
Y287200D01*
X368701Y286701D01*
X369700D01*
X370200Y287200D01*
X373199Y289700D02*
X371200D01*
Y288200D01*
X372200Y288700D01*
X372699D01*
X373199Y288200D01*
Y287200D01*
X372699Y286701D01*
X371700D01*
X371200Y287200D01*
X357284Y263797D02*
X356867Y264214D01*
X356034D01*
X355618Y263797D01*
Y262131D01*
X356034Y261715D01*
X356867D01*
X357284Y262131D01*
X359366Y261715D02*
Y264214D01*
X358117Y262965D01*
X359783D01*
X356683Y289833D02*
X356267Y290250D01*
X355434D01*
X355017Y289833D01*
Y288167D01*
X355434Y287750D01*
X356267D01*
X356683Y288167D01*
X357517Y289833D02*
X357933Y290250D01*
X358766D01*
X359183Y289833D01*
Y289417D01*
X358766Y289000D01*
X358350D01*
X358766D01*
X359183Y288583D01*
Y288167D01*
X358766Y287750D01*
X357933D01*
X357517Y288167D01*
X356484Y293833D02*
X356067Y294250D01*
X355234D01*
X354817Y293833D01*
Y292167D01*
X355234Y291750D01*
X356067D01*
X356484Y292167D01*
X358983Y291750D02*
X357316D01*
X358983Y293417D01*
Y293833D01*
X358566Y294250D01*
X357733D01*
X357316Y293833D01*
X343600Y297400D02*
X343100Y297900D01*
X342101D01*
X341601Y297400D01*
Y295400D01*
X342101Y294900D01*
X343100D01*
X343600Y295400D01*
X344600Y294900D02*
X345600D01*
X345100D01*
Y297900D01*
X344600Y297400D01*
M02*
