G04*
G04 #@! TF.GenerationSoftware,Altium Limited,Altium Designer,20.0.13 (296)*
G04*
G04 Layer_Color=8421504*
%FSLAX25Y25*%
%MOIN*%
G70*
G01*
G75*
%ADD18R,0.02362X0.02362*%
%ADD19R,0.12000X0.05400*%
%ADD20R,0.01772X0.01772*%
%ADD21R,0.02047X0.02205*%
%ADD22R,0.02205X0.02047*%
%ADD23R,0.02756X0.00984*%
%ADD24R,0.06496X0.06496*%
%ADD25R,0.02165X0.01772*%
%ADD26R,0.03150X0.02953*%
%ADD27R,0.07000X0.06400*%
%ADD28R,0.01772X0.01772*%
%ADD29O,0.03937X0.01378*%
%ADD30O,0.01378X0.03937*%
%ADD31R,0.02953X0.03150*%
%ADD32R,0.02500X0.05000*%
D18*
X343925Y239276D02*
D03*
X347075D02*
D03*
X340775D02*
D03*
X350224D02*
D03*
X350224Y242425D02*
D03*
X340776D02*
D03*
X347075D02*
D03*
X343925D02*
D03*
Y245575D02*
D03*
X347075D02*
D03*
X340776D02*
D03*
X350224D02*
D03*
X350224Y248724D02*
D03*
X340775D02*
D03*
X347075D02*
D03*
X343925D02*
D03*
D19*
X337851Y288532D02*
D03*
Y276532D02*
D03*
D20*
X350000Y301000D02*
D03*
X346850D02*
D03*
X364925D02*
D03*
X368075D02*
D03*
D21*
X363971Y296925D02*
D03*
X360900D02*
D03*
X363971Y292925D02*
D03*
X360900D02*
D03*
X363971Y288900D02*
D03*
X360900D02*
D03*
X353035Y297000D02*
D03*
X349965D02*
D03*
X353035Y293000D02*
D03*
X349965D02*
D03*
X353000Y289000D02*
D03*
X349929D02*
D03*
X364571Y263000D02*
D03*
X361500D02*
D03*
X311594Y265489D02*
D03*
X308523D02*
D03*
X311594Y240988D02*
D03*
X308523D02*
D03*
D22*
X369500Y282571D02*
D03*
Y279500D02*
D03*
X358000Y282571D02*
D03*
Y279500D02*
D03*
D23*
X357890Y271500D02*
D03*
Y273468D02*
D03*
Y275437D02*
D03*
X369110D02*
D03*
Y273468D02*
D03*
Y271500D02*
D03*
Y269531D02*
D03*
Y267563D02*
D03*
X357890Y269531D02*
D03*
Y267563D02*
D03*
D24*
X363500Y271500D02*
D03*
D25*
X353000Y276500D02*
D03*
Y280043D02*
D03*
Y267500D02*
D03*
Y271043D02*
D03*
X349300Y271128D02*
D03*
Y274672D02*
D03*
X353000Y261000D02*
D03*
Y264543D02*
D03*
X375400Y272428D02*
D03*
Y275972D02*
D03*
X373500Y265728D02*
D03*
Y269272D02*
D03*
X369000Y259228D02*
D03*
Y262772D02*
D03*
X364500Y259272D02*
D03*
Y255728D02*
D03*
D26*
X360000Y250646D02*
D03*
Y256354D02*
D03*
Y246854D02*
D03*
Y241146D02*
D03*
X332700Y253246D02*
D03*
Y258954D02*
D03*
D27*
X367500Y248000D02*
D03*
Y234600D02*
D03*
X326400Y251400D02*
D03*
Y238000D02*
D03*
D28*
X323900Y262775D02*
D03*
Y259625D02*
D03*
X308300Y271850D02*
D03*
Y268700D02*
D03*
D29*
X336051Y249118D02*
D03*
Y246559D02*
D03*
Y244000D02*
D03*
Y241441D02*
D03*
Y238882D02*
D03*
X354949D02*
D03*
Y241441D02*
D03*
Y244000D02*
D03*
Y246559D02*
D03*
Y249118D02*
D03*
D30*
X340382Y234551D02*
D03*
X342941D02*
D03*
X345500D02*
D03*
X348059D02*
D03*
X350618D02*
D03*
Y253449D02*
D03*
X348059D02*
D03*
X345500D02*
D03*
X342941D02*
D03*
X340382D02*
D03*
D31*
X308204Y261288D02*
D03*
X313912D02*
D03*
X308058Y236988D02*
D03*
X313767D02*
D03*
D32*
X312108Y245988D02*
D03*
X308308D02*
D03*
X315808Y255989D02*
D03*
Y245988D02*
D03*
X308308Y255989D02*
D03*
M02*
